<?xml version="1.0" encoding="UTF-8"?>
<svg width="516px" height="143px" viewBox="0 0 516 143" version="1.1" xmlns="http://www.w3.org/2000/svg" xmlns:xlink="http://www.w3.org/1999/xlink">
    <title>models</title>
    <g id="Page-1" stroke="none" stroke-width="1" fill="none" fill-rule="evenodd">
        <g id="models">
            <g id="exercise_mediator" transform="translate(316.000000, 0.000000)">
                <text id="Exercise" font-family="STIXGeneral-Regular, STIXGeneral" font-size="14" font-weight="normal" letter-spacing="-0.28" fill="#000000">
                    <tspan x="148" y="34">Exercise</tspan>
                </text>
                <text id="Sun" font-family="STIXGeneral-Regular, STIXGeneral" font-size="14" font-weight="normal" letter-spacing="-0.28" fill="#000000">
                    <tspan x="20" y="34">Sun</tspan>
                </text>
                <text id="Happy" font-family="STIXGeneral-Regular, STIXGeneral" font-size="14" font-weight="normal" letter-spacing="-0.28" fill="#000000">
                    <tspan x="82" y="117">Happy</tspan>
                </text>
                <circle id="Oval" stroke="#979797" stroke-width="1.5" cx="100" cy="113" r="29.25"></circle>
                <circle id="Oval" stroke="#979797" stroke-width="1.5" cx="30" cy="30" r="29.25"></circle>
                <circle id="Oval" stroke="#979797" stroke-width="1.5" cx="170" cy="30" r="29.25"></circle>
                <path id="Line" d="M49.6239289,52.4466047 L50.0886621,53.0352668 L73.066,82.139 L76.9904406,79.0417073 L79.9130962,92.0232552 L67.9642888,86.1676166 L71.888,83.069 L48.9113379,53.9647332 L48.4466047,53.3760711 L49.6239289,52.4466047 Z" fill="#979797" fill-rule="nonzero"></path>
                <path id="Line" d="M151.392946,52.4447562 L152.555244,53.3929463 L152.081149,53.974095 L128.244,83.191 L132.119577,86.3529251 L120.078582,92.0165767 L123.208629,79.0834677 L127.082,82.243 L150.918851,53.025905 L151.392946,52.4447562 Z" fill="#979797" fill-rule="nonzero"></path>
                <path id="Line" d="M129.166667,24.75 L141.166667,30.5 L129.166667,36.25 L129.166,31.25 L59.75,31.25 L59.75,29.75 L129.166,29.75 L129.166667,24.75 Z" fill="#F36F6F" fill-rule="nonzero"></path>
            </g>
            <g id="age_confoundor">
                <text id="Age" font-family="STIXGeneral-Regular, STIXGeneral" font-size="14" font-weight="normal" letter-spacing="-0.28" fill="#000000">
                    <tspan x="159" y="34">Age</tspan>
                </text>
                <text id="Sun" font-family="STIXGeneral-Regular, STIXGeneral" font-size="14" font-weight="normal" letter-spacing="-0.28" fill="#000000">
                    <tspan x="20" y="34">Sun</tspan>
                </text>
                <text id="Happy" font-family="STIXGeneral-Regular, STIXGeneral" font-size="14" font-weight="normal" letter-spacing="-0.28" fill="#000000">
                    <tspan x="82" y="117">Happy</tspan>
                </text>
                <circle id="Oval" stroke="#979797" stroke-width="1.5" cx="100" cy="113" r="29.25"></circle>
                <circle id="Oval" stroke="#979797" stroke-width="1.5" cx="30" cy="30" r="29.25"></circle>
                <circle id="Oval" stroke="#979797" stroke-width="1.5" cx="170" cy="30" r="29.25"></circle>
                <path id="Line" d="M49.6239289,52.4466047 L50.0886621,53.0352668 L73.066,82.139 L76.9904406,79.0417073 L79.9130962,92.0232552 L67.9642888,86.1676166 L71.888,83.069 L48.9113379,53.9647332 L48.4466047,53.3760711 L49.6239289,52.4466047 Z" fill="#979797" fill-rule="nonzero"></path>
                <path id="Line" d="M151.392946,52.4447562 L152.555244,53.3929463 L152.081149,53.974095 L128.244,83.191 L132.119577,86.3529251 L120.078582,92.0165767 L123.208629,79.0834677 L127.082,82.243 L150.918851,53.025905 L151.392946,52.4447562 Z" fill="#979797" fill-rule="nonzero"></path>
                <path id="Line" d="M71.8333333,24.75 L71.833,29.75 L141.25,29.75 L141.25,31.25 L71.833,31.25 L71.8333333,36.25 L59.8333333,30.5 L71.8333333,24.75 Z" fill="#979797" fill-rule="nonzero"></path>
            </g>
        </g>
    </g>
</svg>