<?xml version="1.0" encoding="UTF-8"?>
<svg width="358px" height="272px" viewBox="0 0 358 272" version="1.1" xmlns="http://www.w3.org/2000/svg" xmlns:xlink="http://www.w3.org/1999/xlink">
    <title>no_groups</title>
    <g id="Page-1" stroke="none" stroke-width="1" fill="none" fill-rule="evenodd" opacity="0.800000012">
        <g id="no_groups" transform="translate(0.000000, 2.000000)">
            <g id="graph">
                <path id="Line" d="M35.5,0 L40,9 L36,9 L36,262 L35,262 L35,9 L31,9 L35.5,0 Z" fill="#979797" fill-rule="nonzero"></path>
                <path id="Line-2" d="M347,238 L356,242.5 L347,247 L347,243 L16,243 L16,242 L347,242 L347,238 Z" fill="#979797" fill-rule="nonzero"></path>
                <text id="Sunniness" font-family="STIXGeneral-Regular, STIXGeneral" font-size="20" font-weight="normal" letter-spacing="-0.4" fill="#000000">
                    <tspan x="154" y="261">Sunniness</tspan>
                </text>
                <text id="Happiness" transform="translate(15.500000, 104.500000) rotate(-90.000000) translate(-15.500000, -104.500000) " font-family="STIXGeneral-Regular, STIXGeneral" font-size="20" font-weight="normal" letter-spacing="-0.4" fill="#000000">
                    <tspan x="-24.5" y="110.5">Happiness</tspan>
                </text>
            </g>
            <line x1="66" y1="63" x2="314" y2="166" id="Line-5" stroke="#000000" stroke-width="2" stroke-linecap="square" stroke-dasharray="7"></line>
            <g id="sample" transform="translate(64.000000, 21.000000)" fill="#AAAAAA">
                <circle id="Oval" cx="198" cy="55" r="5"></circle>
                <circle id="Oval" cx="214" cy="150" r="5"></circle>
                <circle id="Oval" cx="198" cy="125" r="5"></circle>
                <circle id="Oval" cx="150" cy="146" r="5"></circle>
                <circle id="Oval" cx="109" cy="165" r="5"></circle>
                <circle id="Oval" cx="116" cy="180" r="5"></circle>
                <circle id="Oval" cx="177" cy="170" r="5"></circle>
                <circle id="Oval" cx="106" cy="129" r="5"></circle>
                <circle id="Oval" cx="245" cy="121" r="5"></circle>
                <circle id="Oval" cx="171" cy="124" r="5"></circle>
                <circle id="Oval" cx="161" cy="90" r="5"></circle>
                <circle id="Oval" cx="227" cy="90" r="5"></circle>
                <circle id="Oval" cx="260" cy="69" r="5"></circle>
                <circle id="Oval" cx="54" cy="84" r="5"></circle>
                <circle id="Oval" cx="54" cy="53" r="5"></circle>
                <circle id="Oval" cx="99" cy="33" r="5"></circle>
                <circle id="Oval" cx="116" cy="69" r="5"></circle>
                <circle id="Oval" cx="100" cy="55" r="5"></circle>
                <circle id="Oval" cx="149" cy="109" r="5"></circle>
                <circle id="Oval" cx="145" cy="38" r="5"></circle>
                <circle id="Oval" cx="167" cy="46" r="5"></circle>
                <circle id="Oval" cx="135" cy="5" r="5"></circle>
                <circle id="Oval" cx="73" cy="22" r="5"></circle>
                <circle id="Oval" cx="16" cy="48" r="5"></circle>
                <circle id="Oval" cx="5" cy="92" r="5"></circle>
                <circle id="Oval" cx="75" cy="126" r="5"></circle>
                <circle id="Oval" cx="61" cy="134" r="5"></circle>
                <circle id="Oval" cx="110" cy="113" r="5"></circle>
                <circle id="Oval" cx="34" cy="118" r="5"></circle>
            </g>
        </g>
    </g>
</svg>