<?xml version="1.0" encoding="UTF-8"?>
<svg width="1050px" height="298px" viewBox="0 0 1050 298" version="1.1" xmlns="http://www.w3.org/2000/svg" xmlns:xlink="http://www.w3.org/1999/xlink">
    <title>ungrouped</title>
    <g id="Page-1" stroke="none" stroke-width="1" fill="none" fill-rule="evenodd">
        <g id="ungrouped" transform="translate(0.000000, 2.000000)">
            <g id="no_groups" opacity="0.800000012" transform="translate(701.000000, 0.000000)">
                <g id="graph">
                    <path id="Line" d="M26.5,0 L31,9 L27,9 L27,262 L26,262 L26,9 L22,9 L26.5,0 Z" fill="#979797" fill-rule="nonzero"></path>
                    <path id="Line-2" d="M338,238 L347,242.5 L338,247 L338,243 L7,243 L7,242 L338,242 L338,238 Z" fill="#979797" fill-rule="nonzero"></path>
                    <text id="Sunny-Days" font-family="STIXGeneral-Regular, STIXGeneral" font-size="14" font-weight="normal" letter-spacing="-0.28" fill="#000000">
                        <tspan x="145" y="261">Sunny Days</tspan>
                    </text>
                    <text id="Happiness" transform="translate(11.000000, 117.500000) rotate(-90.000000) translate(-11.000000, -117.500000) " font-family="STIXGeneral-Regular, STIXGeneral" font-size="14" font-weight="normal" letter-spacing="-0.28" fill="#000000">
                        <tspan x="-17" y="122">Happiness</tspan>
                    </text>
                </g>
                <line x1="54" y1="59" x2="302" y2="162" id="Line-5" stroke="#979797" stroke-width="2" stroke-linecap="square" stroke-dasharray="5"></line>
                <g id="data" transform="translate(55.000000, 21.000000)" fill="#AAAAAA">
                    <circle id="Oval" cx="198" cy="55" r="5"></circle>
                    <circle id="Oval" cx="214" cy="150" r="5"></circle>
                    <circle id="Oval" cx="198" cy="125" r="5"></circle>
                    <circle id="Oval" cx="150" cy="146" r="5"></circle>
                    <circle id="Oval" cx="109" cy="165" r="5"></circle>
                    <circle id="Oval" cx="116" cy="180" r="5"></circle>
                    <circle id="Oval" cx="177" cy="170" r="5"></circle>
                    <circle id="Oval" cx="106" cy="129" r="5"></circle>
                    <circle id="Oval" cx="245" cy="121" r="5"></circle>
                    <circle id="Oval" cx="171" cy="124" r="5"></circle>
                    <circle id="Oval" cx="161" cy="90" r="5"></circle>
                    <circle id="Oval" cx="227" cy="90" r="5"></circle>
                    <circle id="Oval" cx="260" cy="69" r="5"></circle>
                    <circle id="Oval" cx="54" cy="84" r="5"></circle>
                    <circle id="Oval" cx="54" cy="53" r="5"></circle>
                    <circle id="Oval" cx="99" cy="33" r="5"></circle>
                    <circle id="Oval" cx="116" cy="69" r="5"></circle>
                    <circle id="Oval" cx="100" cy="55" r="5"></circle>
                    <circle id="Oval" cx="149" cy="109" r="5"></circle>
                    <circle id="Oval" cx="145" cy="38" r="5"></circle>
                    <circle id="Oval" cx="167" cy="46" r="5"></circle>
                    <circle id="Oval" cx="135" cy="5" r="5"></circle>
                    <circle id="Oval" cx="73" cy="22" r="5"></circle>
                    <circle id="Oval" cx="16" cy="48" r="5"></circle>
                    <circle id="Oval" cx="5" cy="92" r="5"></circle>
                    <circle id="Oval" cx="75" cy="126" r="5"></circle>
                    <circle id="Oval" cx="61" cy="134" r="5"></circle>
                    <circle id="Oval" cx="110" cy="113" r="5"></circle>
                    <circle id="Oval" cx="34" cy="118" r="5"></circle>
                </g>
            </g>
            <g id="old" opacity="0.800000012" transform="translate(349.000000, 0.000000)">
                <g id="graph">
                    <path id="Line" d="M27.5,0 L32,9 L28,9 L28,262 L27,262 L27,9 L23,9 L27.5,0 Z" fill="#979797" fill-rule="nonzero"></path>
                    <path id="Line-2" d="M339,238 L348,242.5 L339,247 L339,243 L8,243 L8,242 L339,242 L339,238 Z" fill="#979797" fill-rule="nonzero"></path>
                    <text id="Sunny-Days" font-family="STIXGeneral-Regular, STIXGeneral" font-size="14" font-weight="normal" letter-spacing="-0.28" fill="#000000">
                        <tspan x="146" y="261">Sunny Days</tspan>
                    </text>
                    <text id="Happiness" transform="translate(11.000000, 117.500000) rotate(-90.000000) translate(-11.000000, -117.500000) " font-family="STIXGeneral-Regular, STIXGeneral" font-size="14" font-weight="normal" letter-spacing="-0.28" fill="#000000">
                        <tspan x="-17" y="122">Happiness</tspan>
                    </text>
                </g>
                <line x1="154" y1="218" x2="329" y2="72" id="Line-5" stroke="#979797" stroke-width="2" stroke-linecap="square" stroke-dasharray="5"></line>
                <g transform="translate(157.000000, 71.000000)" fill="#FDA1A1" id="Oval">
                    <circle cx="97" cy="5" r="5"></circle>
                    <circle cx="113" cy="100" r="5"></circle>
                    <circle cx="97" cy="75" r="5"></circle>
                    <circle cx="49" cy="96" r="5"></circle>
                    <circle cx="8" cy="115" r="5"></circle>
                    <circle cx="15" cy="130" r="5"></circle>
                    <circle cx="76" cy="120" r="5"></circle>
                    <circle cx="5" cy="79" r="5"></circle>
                    <circle cx="144" cy="71" r="5"></circle>
                    <circle cx="70" cy="74" r="5"></circle>
                    <circle cx="60" cy="40" r="5"></circle>
                    <circle cx="126" cy="40" r="5"></circle>
                    <circle cx="159" cy="19" r="5"></circle>
                </g>
            </g>
            <g id="young" opacity="0.800000012">
                <g id="graph">
                    <path id="Line" d="M29.5,0 L34,9 L30,9 L30,262 L29,262 L29,9 L25,9 L29.5,0 Z" fill="#979797" fill-rule="nonzero"></path>
                    <path id="Line-2" d="M341,238 L350,242.5 L341,247 L341,243 L10,243 L10,242 L341,242 L341,238 Z" fill="#979797" fill-rule="nonzero"></path>
                    <text id="Sunny-Days" font-family="STIXGeneral-Regular, STIXGeneral" font-size="14" font-weight="normal" letter-spacing="-0.28" fill="#000000">
                        <tspan x="148" y="261">Sunny Days</tspan>
                    </text>
                    <text id="Happiness" transform="translate(11.000000, 117.500000) rotate(-90.000000) translate(-11.000000, -117.500000) " font-family="STIXGeneral-Regular, STIXGeneral" font-size="14" font-weight="normal" letter-spacing="-0.28" fill="#000000">
                        <tspan x="-17" y="122">Happiness</tspan>
                    </text>
                </g>
                <line x1="51" y1="155" x2="251" y2="34" id="Line-5" stroke="#979797" stroke-width="2" stroke-linecap="square" stroke-dasharray="5"></line>
                <g transform="translate(58.000000, 21.000000)" fill="#99CDDA" id="Oval">
                    <circle cx="54" cy="84" r="5"></circle>
                    <circle cx="54" cy="53" r="5"></circle>
                    <circle cx="99" cy="33" r="5"></circle>
                    <circle cx="116" cy="69" r="5"></circle>
                    <circle cx="100" cy="55" r="5"></circle>
                    <circle cx="149" cy="109" r="5"></circle>
                    <circle cx="145" cy="38" r="5"></circle>
                    <circle cx="167" cy="46" r="5"></circle>
                    <circle cx="135" cy="5" r="5"></circle>
                    <circle cx="73" cy="22" r="5"></circle>
                    <circle cx="16" cy="48" r="5"></circle>
                    <circle cx="5" cy="92" r="5"></circle>
                    <circle cx="75" cy="126" r="5"></circle>
                    <circle cx="61" cy="134" r="5"></circle>
                    <circle cx="110" cy="113" r="5"></circle>
                    <circle cx="34" cy="118" r="5"></circle>
                </g>
            </g>
            <text id="(a)-Only-ages-under" font-family="STIXGeneral-Regular, STIXGeneral" font-size="14" font-weight="normal" letter-spacing="-0.28" fill="#000000">
                <tspan x="118" y="290">(a) Only ages under 60</tspan>
            </text>
            <text id="(b)-Only-ages-over-6" font-family="STIXGeneral-Regular, STIXGeneral" font-size="14" font-weight="normal" letter-spacing="-0.28" fill="#000000">
                <tspan x="466" y="290">(b) Only ages over 60</tspan>
            </text>
            <text id="(c)-All-age-groups" font-family="STIXGeneral-Regular, STIXGeneral" font-size="14" font-weight="normal" letter-spacing="-0.28" fill="#000000">
                <tspan x="825" y="286">(c) All age groups</tspan>
            </text>
        </g>
    </g>
</svg>